<svg width="31" height="31" viewBox="0 0 31 31" fill="none" xmlns="http://www.w3.org/2000/svg">
<g id="history">
<g id="Union">
<path d="M12.9045 18.8845C12.6604 18.6404 12.2647 18.6404 12.0206 18.8845L9.83314 21.072L9.78115 21.1309C9.59051 21.3761 9.60784 21.7306 9.83314 21.9559L12.0206 24.1434L12.0795 24.1954C12.3247 24.386 12.6792 24.3687 12.9045 24.1434L12.9565 24.0845C13.1472 23.8393 13.1298 23.4848 12.9045 23.2595L11.1595 21.514L12.9045 19.7684L12.9565 19.7095C13.1472 19.4643 13.1298 19.1098 12.9045 18.8845Z" fill="#05D9E8"/>
<path d="M19.7795 18.8845C19.5354 18.6404 19.1397 18.6404 18.8956 18.8845C18.6703 19.1098 18.653 19.4643 18.8436 19.7095L18.8956 19.7684L20.6407 21.514L18.8956 23.2595C18.6703 23.4848 18.653 23.8393 18.8436 24.0845L18.8956 24.1434C19.1209 24.3687 19.4755 24.386 19.7206 24.1954L19.7795 24.1434L21.967 21.9559C22.1923 21.7306 22.2097 21.3761 22.019 21.1309L21.967 21.072L19.7795 18.8845Z" fill="#05D9E8"/>
<path d="M17.3822 17.8087C17.0617 17.6805 16.698 17.8364 16.5698 18.1568L14.0698 24.4068L14.0466 24.4761C13.9647 24.7781 14.1204 25.1002 14.418 25.2193C14.7385 25.3475 15.1022 25.1916 15.2304 24.8711L17.7304 18.6211L17.7535 18.5518C17.8355 18.2498 17.6798 17.9277 17.3822 17.8087Z" fill="#05D9E8"/>
<path d="M18.4001 12.139C18.7453 12.139 19.0251 12.4188 19.0251 12.764C19.0251 13.0845 18.7838 13.3487 18.473 13.3848L18.4001 13.389H7.15008C6.80491 13.389 6.52509 13.1091 6.52509 12.764C6.52509 12.4434 6.76636 12.1793 7.0772 12.1432L7.15008 12.139H18.4001Z" fill="#05D9E8"/>
<path d="M23.4001 12.764C23.4001 12.4188 23.1203 12.139 22.7751 12.139H20.9001L20.8272 12.1432C20.5164 12.1793 20.2751 12.4434 20.2751 12.764C20.2751 13.1091 20.5549 13.389 20.9001 13.389H22.7751L22.848 13.3848C23.1588 13.3487 23.4001 13.0845 23.4001 12.764Z" fill="#05D9E8"/>
<path d="M9.33758 14.639C9.68276 14.639 9.96258 14.9188 9.96258 15.264C9.96258 15.5845 9.72131 15.8487 9.41047 15.8848L9.33758 15.889H7.15008C6.80491 15.889 6.52509 15.6091 6.52509 15.264C6.52509 14.9434 6.76636 14.6793 7.0772 14.6432L7.15008 14.639H9.33758Z" fill="#05D9E8"/>
<path d="M16.8376 15.264C16.8376 14.9188 16.5578 14.639 16.2126 14.639H12.1501L12.0772 14.6432C11.7664 14.6793 11.5251 14.9434 11.5251 15.264C11.5251 15.6091 11.8049 15.889 12.1501 15.889H16.2126L16.2855 15.8848C16.5963 15.8487 16.8376 15.5845 16.8376 15.264Z" fill="#05D9E8"/>
<path d="M24.6501 7.76396C25.3404 7.76396 25.9001 7.20432 25.9001 6.51396C25.9001 5.82361 25.3404 5.26396 24.6501 5.26396C23.9597 5.26396 23.4001 5.82361 23.4001 6.51396C23.4001 7.20432 23.9597 7.76396 24.6501 7.76396Z" fill="#05D9E8"/>
<path d="M22.1501 6.51396C22.1501 7.20432 21.5904 7.76396 20.9001 7.76396C20.2097 7.76396 19.6501 7.20432 19.6501 6.51396C19.6501 5.82361 20.2097 5.26396 20.9001 5.26396C21.5904 5.26396 22.1501 5.82361 22.1501 6.51396Z" fill="#05D9E8"/>
<path d="M17.1501 7.76396C17.8404 7.76396 18.4001 7.20432 18.4001 6.51396C18.4001 5.82361 17.8404 5.26396 17.1501 5.26396C16.4597 5.26396 15.9001 5.82361 15.9001 6.51396C15.9001 7.20432 16.4597 7.76396 17.1501 7.76396Z" fill="#05D9E8"/>
<path fill-rule="evenodd" clip-rule="evenodd" d="M25.2751 2.76396H6.52509C4.7992 2.76396 3.40009 4.16307 3.40009 5.88896V25.264C3.40009 26.9899 4.7992 28.389 6.52509 28.389H25.2751C27.001 28.389 28.4001 26.9899 28.4001 25.264V5.88896C28.4001 4.16307 27.001 2.76396 25.2751 2.76396ZM4.65009 25.264V10.264H27.1501V25.264C27.1501 26.2995 26.3106 27.139 25.2751 27.139H6.52509C5.48955 27.139 4.65009 26.2995 4.65009 25.264ZM4.65009 5.88896V9.01396H27.1501V5.88896C27.1501 4.85343 26.3106 4.01396 25.2751 4.01396H6.52509C5.48955 4.01396 4.65009 4.85343 4.65009 5.88896Z" fill="#05D9E8"/>
<path d="M12.9045 18.8845C12.6604 18.6404 12.2647 18.6404 12.0206 18.8845L9.83314 21.072L9.78115 21.1309C9.59051 21.3761 9.60784 21.7306 9.83314 21.9559L12.0206 24.1434L12.0795 24.1954C12.3247 24.386 12.6792 24.3687 12.9045 24.1434L12.9565 24.0845C13.1472 23.8393 13.1298 23.4848 12.9045 23.2595L11.1595 21.514L12.9045 19.7684L12.9565 19.7095C13.1472 19.4643 13.1298 19.1098 12.9045 18.8845Z" stroke="#05D9E8"/>
<path d="M19.7795 18.8845C19.5354 18.6404 19.1397 18.6404 18.8956 18.8845C18.6703 19.1098 18.653 19.4643 18.8436 19.7095L18.8956 19.7684L20.6407 21.514L18.8956 23.2595C18.6703 23.4848 18.653 23.8393 18.8436 24.0845L18.8956 24.1434C19.1209 24.3687 19.4755 24.386 19.7206 24.1954L19.7795 24.1434L21.967 21.9559C22.1923 21.7306 22.2097 21.3761 22.019 21.1309L21.967 21.072L19.7795 18.8845Z" stroke="#05D9E8"/>
<path d="M17.3822 17.8087C17.0617 17.6805 16.698 17.8364 16.5698 18.1568L14.0698 24.4068L14.0466 24.4761C13.9647 24.7781 14.1204 25.1002 14.418 25.2193C14.7385 25.3475 15.1022 25.1916 15.2304 24.8711L17.7304 18.6211L17.7535 18.5518C17.8355 18.2498 17.6798 17.9277 17.3822 17.8087Z" stroke="#05D9E8"/>
<path d="M18.4001 12.139C18.7453 12.139 19.0251 12.4188 19.0251 12.764C19.0251 13.0845 18.7838 13.3487 18.473 13.3848L18.4001 13.389H7.15008C6.80491 13.389 6.52509 13.1091 6.52509 12.764C6.52509 12.4434 6.76636 12.1793 7.0772 12.1432L7.15008 12.139H18.4001Z" stroke="#05D9E8"/>
<path d="M23.4001 12.764C23.4001 12.4188 23.1203 12.139 22.7751 12.139H20.9001L20.8272 12.1432C20.5164 12.1793 20.2751 12.4434 20.2751 12.764C20.2751 13.1091 20.5549 13.389 20.9001 13.389H22.7751L22.848 13.3848C23.1588 13.3487 23.4001 13.0845 23.4001 12.764Z" stroke="#05D9E8"/>
<path d="M9.33758 14.639C9.68276 14.639 9.96258 14.9188 9.96258 15.264C9.96258 15.5845 9.72131 15.8487 9.41047 15.8848L9.33758 15.889H7.15008C6.80491 15.889 6.52509 15.6091 6.52509 15.264C6.52509 14.9434 6.76636 14.6793 7.0772 14.6432L7.15008 14.639H9.33758Z" stroke="#05D9E8"/>
<path d="M16.8376 15.264C16.8376 14.9188 16.5578 14.639 16.2126 14.639H12.1501L12.0772 14.6432C11.7664 14.6793 11.5251 14.9434 11.5251 15.264C11.5251 15.6091 11.8049 15.889 12.1501 15.889H16.2126L16.2855 15.8848C16.5963 15.8487 16.8376 15.5845 16.8376 15.264Z" stroke="#05D9E8"/>
<path d="M24.6501 7.76396C25.3404 7.76396 25.9001 7.20432 25.9001 6.51396C25.9001 5.82361 25.3404 5.26396 24.6501 5.26396C23.9597 5.26396 23.4001 5.82361 23.4001 6.51396C23.4001 7.20432 23.9597 7.76396 24.6501 7.76396Z" stroke="#05D9E8"/>
<path d="M22.1501 6.51396C22.1501 7.20432 21.5904 7.76396 20.9001 7.76396C20.2097 7.76396 19.6501 7.20432 19.6501 6.51396C19.6501 5.82361 20.2097 5.26396 20.9001 5.26396C21.5904 5.26396 22.1501 5.82361 22.1501 6.51396Z" stroke="#05D9E8"/>
<path d="M17.1501 7.76396C17.8404 7.76396 18.4001 7.20432 18.4001 6.51396C18.4001 5.82361 17.8404 5.26396 17.1501 5.26396C16.4597 5.26396 15.9001 5.82361 15.9001 6.51396C15.9001 7.20432 16.4597 7.76396 17.1501 7.76396Z" stroke="#05D9E8"/>
<path fill-rule="evenodd" clip-rule="evenodd" d="M25.2751 2.76396H6.52509C4.7992 2.76396 3.40009 4.16307 3.40009 5.88896V25.264C3.40009 26.9899 4.7992 28.389 6.52509 28.389H25.2751C27.001 28.389 28.4001 26.9899 28.4001 25.264V5.88896C28.4001 4.16307 27.001 2.76396 25.2751 2.76396ZM4.65009 25.264V10.264H27.1501V25.264C27.1501 26.2995 26.3106 27.139 25.2751 27.139H6.52509C5.48955 27.139 4.65009 26.2995 4.65009 25.264ZM4.65009 5.88896V9.01396H27.1501V5.88896C27.1501 4.85343 26.3106 4.01396 25.2751 4.01396H6.52509C5.48955 4.01396 4.65009 4.85343 4.65009 5.88896Z" stroke="#05D9E8"/>
</g>
</g>
</svg>
