<svg width="31" height="31" viewBox="0 0 31 31" fill="none" xmlns="http://www.w3.org/2000/svg">
<g id="Home">
<path fill-rule="evenodd" clip-rule="evenodd" d="M10.8862 4.90181C12.1449 3.80249 13.0377 3.02451 13.7935 2.51325C14.5339 2.01243 15.0596 1.82706 15.5745 1.82706C16.0894 1.82706 16.615 2.01243 17.3554 2.51326C18.1113 3.02451 19.0041 3.80249 20.2628 4.90182L26.3183 10.1906C26.282 10.2786 26.262 10.375 26.262 10.4761V19.8725C26.262 22.1064 26.2607 23.7137 26.1125 24.9375C25.9661 26.1471 25.6871 26.8673 25.2157 27.3909C24.745 27.9136 24.1149 28.2039 23.2402 28.3582C22.4354 28.5001 21.491 28.5166 20.3595 28.5185V21.83C20.3595 19.1133 18.3598 16.7734 15.7319 16.7734C13.1041 16.7734 11.1044 19.1133 11.1044 21.83V28.5185C9.97287 28.5166 9.02846 28.5001 8.22364 28.3582C7.34902 28.2039 6.71885 27.9136 6.24823 27.3909C5.77676 26.8673 5.49777 26.1471 5.35135 24.9375C5.20321 23.7137 5.20192 22.1063 5.20192 19.8725V10.4761C5.20192 10.2995 5.14085 10.1371 5.03867 10.0089L10.8862 4.90181ZM3.70192 11.1764L2.04748 12.6214C1.7355 12.8939 1.26171 12.8619 0.989233 12.5499C0.716758 12.2379 0.74878 11.7641 1.06076 11.4916L9.89947 3.77204L9.93802 3.73837C11.1495 2.6803 12.1114 1.84014 12.9531 1.2708C13.8192 0.684996 14.6402 0.327057 15.5745 0.327057C16.5088 0.327057 17.3298 0.684997 18.1959 1.2708C19.0376 1.84013 19.9995 2.68027 21.2109 3.73831L21.2109 3.73836L21.2495 3.77205L30.0882 11.4916C30.4002 11.7641 30.4322 12.2379 30.1597 12.5499C29.8873 12.8619 29.4135 12.8939 29.1015 12.6214L27.762 11.4515V19.8725V19.9244V19.9245C27.762 22.0952 27.762 23.7934 27.6017 25.1178C27.4383 26.4669 27.0979 27.5422 26.3304 28.3946C25.5621 29.2479 24.5769 29.6456 23.5008 29.8354C22.4604 30.0188 21.2623 30.0188 20.0094 30.0188H19.962H19.9619L19.6094 30.0187C19.1952 30.0187 18.8595 29.6829 18.8595 29.2687V21.83C18.8595 19.7897 17.3871 18.2734 15.7319 18.2734C14.0768 18.2734 12.6044 19.7897 12.6044 21.83V29.2687C12.6044 29.6829 12.2687 30.0187 11.8545 30.0187L11.502 30.0188H11.5019H11.4545C10.2016 30.0188 9.00345 30.0188 7.96313 29.8354C6.88702 29.6456 5.90181 29.2479 5.13349 28.3946C4.36601 27.5422 4.02554 26.4669 3.86222 25.1178C3.7019 23.7933 3.70191 22.0952 3.70192 19.9245L3.70192 19.8725V11.1764Z" fill="#05D9E8"/>
<path d="M13.7935 2.51325L14.0737 2.92741V2.92741L13.7935 2.51325ZM10.8862 4.90181L10.5573 4.52522L10.8862 4.90181ZM17.3554 2.51326L17.0753 2.92741L17.3554 2.51326ZM20.2628 4.90182L20.5917 4.52523L20.2628 4.90182ZM26.3183 10.1906L26.7805 10.3811C26.8622 10.183 26.8085 9.9549 26.6472 9.81397L26.3183 10.1906ZM26.1125 24.9375L25.6162 24.8774V24.8774L26.1125 24.9375ZM25.2157 27.3909L24.8441 27.0563L24.8441 27.0563L25.2157 27.3909ZM23.2402 28.3582L23.1534 27.8658L23.2402 28.3582ZM20.3595 28.5185H19.8595C19.8595 28.6513 19.9122 28.7786 20.0062 28.8724C20.1001 28.9662 20.2275 29.0188 20.3603 29.0185L20.3595 28.5185ZM11.1044 28.5185L11.1036 29.0185C11.2363 29.0188 11.3637 28.9662 11.4577 28.8724C11.5516 28.7786 11.6044 28.6513 11.6044 28.5185H11.1044ZM8.22364 28.3582L8.31048 27.8658H8.31047L8.22364 28.3582ZM6.24823 27.3909L6.61981 27.0563L6.61981 27.0563L6.24823 27.3909ZM5.35135 24.9375L4.85497 24.9976L5.35135 24.9375ZM5.03867 10.0089L4.70976 9.63236C4.50834 9.80828 4.481 10.1115 4.64772 10.3206L5.03867 10.0089ZM3.70192 11.1764H4.20192C4.20192 10.9803 4.08728 10.8023 3.90874 10.7212C3.73019 10.6401 3.52071 10.6708 3.37301 10.7998L3.70192 11.1764ZM2.04748 12.6214L1.71857 12.2448H1.71857L2.04748 12.6214ZM0.989233 12.5499L1.36582 12.221H1.36582L0.989233 12.5499ZM1.06076 11.4916L0.73185 11.115H0.731849L1.06076 11.4916ZM9.89947 3.77204L9.57056 3.39545L9.57056 3.39545L9.89947 3.77204ZM9.93802 3.73837L10.2669 4.11496L10.2669 4.11496L9.93802 3.73837ZM12.9531 1.2708L13.2333 1.68495L12.9531 1.2708ZM18.1959 1.2708L17.9157 1.68495V1.68495L18.1959 1.2708ZM21.2109 3.73831L20.8819 4.11498L20.8898 4.12155L21.2109 3.73831ZM21.2109 3.73836L21.5399 3.36169L21.5321 3.35512L21.2109 3.73836ZM21.2495 3.77205L20.9206 4.14864L20.9206 4.14864L21.2495 3.77205ZM30.0882 11.4916L30.4171 11.115L30.0882 11.4916ZM30.1597 12.5499L29.7832 12.221L29.7832 12.221L30.1597 12.5499ZM29.1015 12.6214L29.4304 12.2448L29.1015 12.6214ZM27.762 11.4515L28.0909 11.0749C27.9432 10.9459 27.7337 10.9151 27.5552 10.9963C27.3766 11.0774 27.262 11.2554 27.262 11.4515H27.762ZM27.762 19.9245H27.262V19.9245L27.762 19.9245ZM27.6017 25.1178L27.1053 25.0577V25.0577L27.6017 25.1178ZM26.3304 28.3946L26.702 28.7291L26.3304 28.3946ZM23.5008 29.8354L23.4139 29.343L23.5008 29.8354ZM20.0094 30.0188L20.0094 29.5188H20.0094V30.0188ZM19.9619 30.0188L19.9618 30.5188H19.9619V30.0188ZM19.6094 30.0187L19.6094 29.5187L19.6094 30.0187ZM11.8545 30.0187L11.8545 29.5187H11.8545L11.8545 30.0187ZM11.502 30.0188V30.5188H11.5021L11.502 30.0188ZM11.4545 30.0188V29.5188H11.4545L11.4545 30.0188ZM7.96313 29.8354L8.04997 29.343L7.96313 29.8354ZM5.13349 28.3946L4.76191 28.7291H4.76191L5.13349 28.3946ZM3.86222 25.1178L4.3586 25.0577V25.0577L3.86222 25.1178ZM3.70192 19.9245L4.20192 19.9245L3.70192 19.9245ZM3.70192 19.8725L4.20192 19.8725V19.8725H3.70192ZM13.5134 2.0991C12.7259 2.63175 11.8061 3.4345 10.5573 4.52522L11.2151 5.2784C12.4836 4.17048 13.3495 3.41726 14.0737 2.92741L13.5134 2.0991ZM15.5745 1.32706C14.9199 1.32706 14.2958 1.56988 13.5134 2.0991L14.0737 2.92741C14.7721 2.45498 15.1994 2.32706 15.5745 2.32706V1.32706ZM17.6356 2.0991C16.8532 1.56988 16.2291 1.32706 15.5745 1.32706V2.32706C15.9496 2.32706 16.3769 2.45498 17.0753 2.92741L17.6356 2.0991ZM20.5917 4.52523C19.3428 3.4345 18.4231 2.63175 17.6356 2.0991L17.0753 2.92741C17.7995 3.41726 18.6653 4.17049 19.9339 5.27841L20.5917 4.52523ZM26.6472 9.81397L20.5917 4.52523L19.9339 5.27841L25.9893 10.5671L26.6472 9.81397ZM26.762 10.4761C26.762 10.4415 26.7687 10.4097 26.7805 10.3811L25.856 10C25.7952 10.1474 25.762 10.3085 25.762 10.4761H26.762ZM26.762 19.8725V10.4761H25.762V19.8725H26.762ZM26.6089 24.9976C26.7615 23.7367 26.762 22.0935 26.762 19.8725H25.762C25.762 22.1193 25.7598 23.6908 25.6162 24.8774L26.6089 24.9976ZM25.5872 27.7255C26.1573 27.0923 26.4569 26.2538 26.6089 24.9976L25.6162 24.8774C25.4754 26.0404 25.2169 26.6422 24.8441 27.0563L25.5872 27.7255ZM23.3271 28.8506C24.2691 28.6844 25.0175 28.3582 25.5872 27.7255L24.8441 27.0563C24.4726 27.469 23.9606 27.7234 23.1534 27.8658L23.3271 28.8506ZM20.3603 29.0185C21.4859 29.0167 22.4729 29.0012 23.3271 28.8506L23.1534 27.8658C22.3979 27.999 21.4962 28.0166 20.3586 28.0185L20.3603 29.0185ZM19.8595 21.83V28.5185H20.8595V21.83H19.8595ZM15.7319 17.2734C18.0334 17.2734 19.8595 19.3364 19.8595 21.83H20.8595C20.8595 18.8902 18.6861 16.2734 15.7319 16.2734V17.2734ZM11.6044 21.83C11.6044 19.3364 13.4305 17.2734 15.7319 17.2734V16.2734C12.7778 16.2734 10.6044 18.8902 10.6044 21.83H11.6044ZM11.6044 28.5185V21.83H10.6044V28.5185H11.6044ZM8.1368 28.8506C8.99094 29.0012 9.97801 29.0167 11.1036 29.0185L11.1053 28.0185C9.96773 28.0166 9.06597 27.999 8.31048 27.8658L8.1368 28.8506ZM5.87665 27.7255C6.44636 28.3582 7.19474 28.6844 8.1368 28.8506L8.31047 27.8658C7.5033 27.7234 6.99133 27.469 6.61981 27.0563L5.87665 27.7255ZM4.85497 24.9976C5.00703 26.2538 5.30655 27.0923 5.87665 27.7255L6.61981 27.0563C6.24698 26.6422 5.9885 26.0404 5.84773 24.8774L4.85497 24.9976ZM4.70192 19.8725C4.70192 22.0934 4.70235 23.7367 4.85497 24.9976L5.84773 24.8774C5.70408 23.6908 5.70192 22.1193 5.70192 19.8725H4.70192ZM4.70192 10.4761V19.8725H5.70192V10.4761H4.70192ZM4.64772 10.3206C4.68184 10.3635 4.70192 10.4168 4.70192 10.4761H5.70192C5.70192 10.1822 5.59985 9.91076 5.42962 9.69724L4.64772 10.3206ZM10.5573 4.52522L4.70976 9.63236L5.36757 10.3855L11.2151 5.2784L10.5573 4.52522ZM3.37301 10.7998L1.71857 12.2448L2.37639 12.998L4.03083 11.553L3.37301 10.7998ZM1.71857 12.2448C1.61458 12.3356 1.45665 12.325 1.36582 12.221L0.612644 12.8788C1.06677 13.3987 1.85642 13.4521 2.37639 12.998L1.71857 12.2448ZM1.36582 12.221C1.275 12.117 1.28567 11.959 1.38966 11.8682L0.731849 11.115C0.211888 11.5692 0.158517 12.3588 0.612644 12.8788L1.36582 12.221ZM1.38966 11.8682L10.2284 4.14863L9.57056 3.39545L0.73185 11.115L1.38966 11.8682ZM10.2284 4.14864L10.2669 4.11496L9.60912 3.36178L9.57056 3.39545L10.2284 4.14864ZM10.2669 4.11496C11.4875 3.04895 12.423 2.23303 13.2333 1.68495L12.673 0.856642C11.7998 1.44725 10.8115 2.31165 9.60911 3.36178L10.2669 4.11496ZM13.2333 1.68495C14.0575 1.12743 14.78 0.827057 15.5745 0.827057V-0.172943C14.5003 -0.172943 13.5808 0.242565 12.673 0.856642L13.2333 1.68495ZM15.5745 0.827057C16.3689 0.827057 17.0915 1.12743 17.9157 1.68495L18.476 0.856644C17.5682 0.242565 16.6487 -0.172943 15.5745 -0.172943V0.827057ZM17.9157 1.68495C18.726 2.23302 19.6615 3.04892 20.882 4.1149L21.5398 3.36173C20.3375 2.31162 19.3491 1.44724 18.476 0.856644L17.9157 1.68495ZM20.8898 4.12155L20.8898 4.12159L21.5321 3.35512L21.532 3.35508L20.8898 4.12155ZM20.882 4.11495L20.9206 4.14864L21.5784 3.39546L21.5399 3.36177L20.882 4.11495ZM20.9206 4.14864L29.7593 11.8682L30.4171 11.115L21.5784 3.39546L20.9206 4.14864ZM29.7593 11.8682C29.8633 11.959 29.874 12.117 29.7832 12.221L30.5363 12.8788C30.9905 12.3588 30.9371 11.5692 30.4171 11.115L29.7593 11.8682ZM29.7832 12.221C29.6923 12.325 29.5344 12.3356 29.4304 12.2448L28.7726 12.998C29.2926 13.4521 30.0822 13.3987 30.5363 12.8788L29.7832 12.221ZM29.4304 12.2448L28.0909 11.0749L27.4331 11.8281L28.7726 12.998L29.4304 12.2448ZM27.262 11.4515V19.8725H28.262V11.4515H27.262ZM27.262 19.8725V19.9244H28.262V19.8725H27.262ZM27.262 19.9244V19.9245H28.262V19.9244H27.262ZM27.262 19.9245C27.262 22.1074 27.2611 23.7702 27.1053 25.0577L28.098 25.1778C28.2628 23.8165 28.262 22.083 28.262 19.9245L27.262 19.9245ZM27.1053 25.0577C26.9476 26.3604 26.6276 27.3172 25.9588 28.06L26.702 28.7291C27.5681 27.7671 27.9291 26.5735 28.098 25.1778L27.1053 25.0577ZM25.9588 28.06C25.2898 28.803 24.4231 29.165 23.4139 29.343L23.5876 30.3278C24.7307 30.1262 25.8343 29.6928 26.702 28.7291L25.9588 28.06ZM23.4139 29.343C22.4253 29.5173 21.2743 29.5188 20.0094 29.5188L20.0094 30.5188C21.2503 30.5188 22.4956 30.5204 23.5876 30.3278L23.4139 29.343ZM20.0094 29.5188H19.962V30.5188H20.0094V29.5188ZM19.962 29.5188H19.9619V30.5188H19.962V29.5188ZM19.9619 29.5188L19.6094 29.5187L19.6093 30.5187L19.9618 30.5188L19.9619 29.5188ZM19.6094 29.5187C19.4714 29.5187 19.3595 29.4068 19.3595 29.2687H18.3595C18.3595 29.9591 18.919 30.5187 19.6093 30.5187L19.6094 29.5187ZM19.3595 29.2687V21.83H18.3595V29.2687H19.3595ZM19.3595 21.83C19.3595 19.5608 17.7082 17.7734 15.7319 17.7734V18.7734C17.066 18.7734 18.3595 20.0187 18.3595 21.83H19.3595ZM15.7319 17.7734C13.7557 17.7734 12.1044 19.5608 12.1044 21.83H13.1044C13.1044 20.0187 14.3979 18.7734 15.7319 18.7734V17.7734ZM12.1044 21.83V29.2687H13.1044V21.83H12.1044ZM12.1044 29.2687C12.1044 29.4068 11.9925 29.5187 11.8545 29.5187L11.8546 30.5187C12.5449 30.5187 13.1044 29.9591 13.1044 29.2687H12.1044ZM11.8545 29.5187L11.502 29.5188L11.5021 30.5188L11.8546 30.5187L11.8545 29.5187ZM11.502 29.5188H11.5019V30.5188H11.502V29.5188ZM11.5019 29.5188H11.4545V30.5188H11.5019V29.5188ZM11.4545 29.5188C10.1896 29.5188 9.03861 29.5173 8.04997 29.343L7.8763 30.3278C8.96829 30.5204 10.2136 30.5188 11.4545 30.5188L11.4545 29.5188ZM8.04997 29.343C7.04083 29.165 6.17406 28.803 5.50507 28.06L4.76191 28.7291C5.62956 29.6928 6.73322 30.1262 7.8763 30.3278L8.04997 29.343ZM5.50507 28.06C4.83629 27.3172 4.51629 26.3604 4.3586 25.0577L3.36584 25.1778C3.53479 26.5735 3.89574 27.7671 4.76191 28.7291L5.50507 28.06ZM4.3586 25.0577C4.20275 23.7702 4.20191 22.1073 4.20192 19.9245L3.20192 19.9245C3.20191 22.083 3.20105 23.8165 3.36584 25.1778L4.3586 25.0577ZM4.20192 19.9245L4.20192 19.8725L3.20192 19.8725L3.20192 19.9245L4.20192 19.9245ZM4.20192 19.8725V11.1764H3.20192V19.8725H4.20192Z" fill="#05D9E8"/>
</g>
</svg>
