<svg width="32" height="31" viewBox="0 0 32 31" fill="none" xmlns="http://www.w3.org/2000/svg">
<g id="Leaderboard">
<path fill-rule="evenodd" clip-rule="evenodd" d="M23.2511 30.4641V0.163528H31.0667V30.4641H23.2511ZM23.8523 29.8629H30.4655V0.764731H23.8523V29.8629ZM8.8824 30.4641H1.06677V15.2537H8.8824V30.4641ZM8.2812 15.8549H1.66797V29.923H8.2812V15.8549ZM12.189 30.4641H20.0046V7.67856H12.189V30.4641ZM12.7902 8.27976H19.4034V29.8629H12.7902V8.27976ZM13.5718 5.57435L18.8023 1.66654L17.7803 0.644493H20.3053V3.16954L19.2231 2.08738L13.5117 6.41603L11.2873 3.89099L2.26923 12.0072L1.84839 11.5864L11.3474 3.0493L13.5718 5.57435Z" fill="#05D9E8"/>
<path d="M23.2511 0.163528V-0.336472H22.7511V0.163528H23.2511ZM23.2511 30.4641H22.7511V30.9641H23.2511V30.4641ZM31.0667 0.163528H31.5667V-0.336472H31.0667V0.163528ZM31.0667 30.4641V30.9641H31.5667V30.4641H31.0667ZM30.4655 29.8629V30.3629H30.9655V29.8629H30.4655ZM23.8523 29.8629H23.3523V30.3629H23.8523V29.8629ZM30.4655 0.764731H30.9655V0.264731H30.4655V0.764731ZM23.8523 0.764731V0.264731H23.3523V0.764731H23.8523ZM1.06677 30.4641H0.566772V30.9641H1.06677V30.4641ZM8.8824 30.4641V30.9641H9.3824V30.4641H8.8824ZM1.06677 15.2537V14.7537H0.566772V15.2537H1.06677ZM8.8824 15.2537H9.3824V14.7537H8.8824V15.2537ZM1.66797 15.8549V15.3549H1.16797V15.8549H1.66797ZM8.2812 15.8549H8.7812V15.3549H8.2812V15.8549ZM1.66797 29.923H1.16797V30.423H1.66797V29.923ZM8.2812 29.923V30.423H8.7812V29.923H8.2812ZM20.0046 30.4641V30.9641H20.5046V30.4641H20.0046ZM12.189 30.4641H11.689V30.9641H12.189V30.4641ZM20.0046 7.67856H20.5046V7.17856H20.0046V7.67856ZM12.189 7.67856V7.17856H11.689V7.67856H12.189ZM19.4034 8.27976H19.9034V7.77976H19.4034V8.27976ZM12.7902 8.27976V7.77976H12.2902V8.27976H12.7902ZM19.4034 29.8629V30.3629H19.9034V29.8629H19.4034ZM12.7902 29.8629H12.2902V30.3629H12.7902V29.8629ZM18.8023 1.66654L19.1016 2.06709L19.5643 1.72139L19.1558 1.31298L18.8023 1.66654ZM13.5718 5.57435L13.1967 5.90487L13.5016 6.25099L13.8711 5.9749L13.5718 5.57435ZM17.7803 0.644493V0.144493H16.5731L17.4267 0.998046L17.7803 0.644493ZM20.3053 0.644493H20.8053V0.144493H20.3053V0.644493ZM20.3053 3.16954L19.9517 3.5231L20.8053 4.37665V3.16954H20.3053ZM19.2231 2.08738L19.5767 1.73382L19.2685 1.42563L18.9211 1.68889L19.2231 2.08738ZM13.5117 6.41603L13.1365 6.74655L13.4436 7.09506L13.8137 6.81452L13.5117 6.41603ZM11.2873 3.89099L11.6624 3.56047L11.3284 3.18128L10.9528 3.51934L11.2873 3.89099ZM2.26923 12.0072L1.91567 12.3608L2.25111 12.6962L2.60371 12.3789L2.26923 12.0072ZM1.84839 11.5864L1.51417 11.2145L1.12192 11.567L1.49483 11.9399L1.84839 11.5864ZM11.3474 3.0493L11.7226 2.71879L11.3888 2.33987L11.0132 2.67742L11.3474 3.0493ZM22.7511 0.163528V30.4641H23.7511V0.163528H22.7511ZM31.0667 -0.336472H23.2511V0.663528H31.0667V-0.336472ZM31.5667 30.4641V0.163528H30.5667V30.4641H31.5667ZM23.2511 30.9641H31.0667V29.9641H23.2511V30.9641ZM30.4655 29.3629H23.8523V30.3629H30.4655V29.3629ZM29.9655 0.764731V29.8629H30.9655V0.764731H29.9655ZM23.8523 1.26473H30.4655V0.264731H23.8523V1.26473ZM24.3523 29.8629V0.764731H23.3523V29.8629H24.3523ZM1.06677 30.9641H8.8824V29.9641H1.06677V30.9641ZM0.566772 15.2537V30.4641H1.56677V15.2537H0.566772ZM8.8824 14.7537H1.06677V15.7537H8.8824V14.7537ZM9.3824 30.4641V15.2537H8.3824V30.4641H9.3824ZM1.66797 16.3549H8.2812V15.3549H1.66797V16.3549ZM2.16797 29.923V15.8549H1.16797V29.923H2.16797ZM8.2812 29.423H1.66797V30.423H8.2812V29.423ZM7.7812 15.8549V29.923H8.7812V15.8549H7.7812ZM20.0046 29.9641H12.189V30.9641H20.0046V29.9641ZM19.5046 7.67856V30.4641H20.5046V7.67856H19.5046ZM12.189 8.17856H20.0046V7.17856H12.189V8.17856ZM12.689 30.4641V7.67856H11.689V30.4641H12.689ZM19.4034 7.77976H12.7902V8.77976H19.4034V7.77976ZM19.9034 29.8629V8.27976H18.9034V29.8629H19.9034ZM12.7902 30.3629H19.4034V29.3629H12.7902V30.3629ZM12.2902 8.27976V29.8629H13.2902V8.27976H12.2902ZM18.503 1.26599L13.2726 5.1738L13.8711 5.9749L19.1016 2.06709L18.503 1.26599ZM17.4267 0.998046L18.4487 2.02009L19.1558 1.31298L18.1338 0.29094L17.4267 0.998046ZM20.3053 0.144493H17.7803V1.14449H20.3053V0.144493ZM20.8053 3.16954V0.644493H19.8053V3.16954H20.8053ZM18.8696 2.44093L19.9517 3.5231L20.6589 2.81599L19.5767 1.73382L18.8696 2.44093ZM13.8137 6.81452L19.5251 2.48586L18.9211 1.68889L13.2097 6.01755L13.8137 6.81452ZM10.9121 4.2215L13.1365 6.74655L13.8869 6.08552L11.6624 3.56047L10.9121 4.2215ZM2.60371 12.3789L11.6217 4.26263L10.9528 3.51934L1.93475 11.6356L2.60371 12.3789ZM1.49483 11.9399L1.91567 12.3608L2.62278 11.6537L2.20194 11.2328L1.49483 11.9399ZM11.0132 2.67742L1.51417 11.2145L2.18261 11.9583L11.6816 3.42118L11.0132 2.67742ZM13.947 5.24384L11.7226 2.71879L10.9722 3.37982L13.1967 5.90487L13.947 5.24384Z" fill="#05D9E8"/>
</g>
</svg>
