<svg width="36" height="36" viewBox="0 0 36 36" fill="none" xmlns="http://www.w3.org/2000/svg">
<g id="LOGIN">
<path id="union-1" fill-rule="evenodd" clip-rule="evenodd" d="M17.6667 6.33333C14.445 6.33333 11.8334 8.945 11.8334 12.1667C11.8334 15.3883 14.445 18 17.6667 18C20.8883 18 23.5 15.3883 23.5 12.1667C23.5 8.945 20.8883 6.33333 17.6667 6.33333ZM22.9765 19.122C25.0677 17.5231 26.4167 15.0024 26.4167 12.1667C26.4167 7.33417 22.4992 3.41666 17.6667 3.41666C12.8342 3.41666 8.91669 7.33417 8.91669 12.1667C8.91669 15.0024 10.2657 17.5231 12.3569 19.122C10.8906 19.7706 9.54159 20.6885 8.38591 21.8442C7.49351 22.7366 6.74282 23.7444 6.14844 24.8324C5.0516 26.8403 5.49891 28.8875 6.73414 30.3351C7.92327 31.7287 9.82818 32.5833 11.8334 32.5833H23.5C25.5052 32.5833 27.4101 31.7287 28.5992 30.3351C29.8345 28.8875 30.2818 26.8403 29.1849 24.8324C28.5906 23.7444 27.8399 22.7366 26.9475 21.8442C25.7918 20.6885 24.4428 19.7706 22.9765 19.122ZM17.6667 20.9167C14.9593 20.9167 12.3627 21.9922 10.4483 23.9066C9.75414 24.6008 9.17034 25.3845 8.70808 26.2307C8.26043 27.0502 8.40483 27.7997 8.95286 28.4419C9.54698 29.1382 10.6169 29.6667 11.8334 29.6667H23.5C24.7165 29.6667 25.7864 29.1382 26.3805 28.4419C26.9285 27.7997 27.0729 27.0502 26.6253 26.2307C26.163 25.3845 25.5792 24.6008 24.8851 23.9066C22.9706 21.9922 20.3741 20.9167 17.6667 20.9167Z" fill="#05D9E8"/>
</g>
</svg>
