<svg width="31" height="36" viewBox="0 0 31 36" fill="none" xmlns="http://www.w3.org/2000/svg">
<g id="power icon" clip-path="url(#clip0_262_7759)">
<g id="Group">
<path id="Vector" d="M20.7725 3.39902V7.79039C24.2379 9.85517 26.6136 14.0226 26.6136 18.8366C26.6136 25.7039 21.7886 31.2735 15.837 31.2735C9.88337 31.2735 5.05637 25.7039 5.05637 18.8366C5.05637 14.4222 7.05883 10.5511 10.0615 8.34506V3.78028C5.05837 6.34 1.56104 12.1129 1.56104 18.8377C1.56104 27.934 7.95058 35.3077 15.833 35.3077C23.7194 35.3077 30.107 27.934 30.107 18.8377C30.106 11.7442 26.2135 5.72103 20.7725 3.39902Z" fill="#05D9E8"/>
<path id="Vector_2" d="M15.5583 20.9634C17.1268 20.9634 17.286 19.8942 17.286 18.5794V3.08092C17.286 1.76259 17.1268 0.692307 15.5583 0.692307C13.9957 0.692307 13.8345 1.76259 13.8345 3.08092V18.5794C13.8335 19.8954 13.9957 20.9634 15.5583 20.9634Z" fill="#05D9E8"/>
</g>
</g>
<defs>
<clipPath id="clip0_262_7759">
<rect width="30" height="34.6154" fill="white" transform="translate(0.833496 0.692307)"/>
</clipPath>
</defs>
</svg>
