<svg width="31" height="31" viewBox="0 0 31 31" fill="none" xmlns="http://www.w3.org/2000/svg">
<g id="REWARD">
<g id="Icon">
<path fill-rule="evenodd" clip-rule="evenodd" d="M15.1334 7.82272C12.8898 7.82272 11.0709 9.64157 11.0709 11.8852C11.0709 14.1289 12.8898 15.9477 15.1334 15.9477C17.3771 15.9477 19.1959 14.1289 19.1959 11.8852C19.1959 9.64157 17.3771 7.82272 15.1334 7.82272ZM12.9459 11.8852C12.9459 10.6771 13.9253 9.69772 15.1334 9.69772C16.3416 9.69772 17.3209 10.6771 17.3209 11.8852C17.3209 13.0933 16.3416 14.0727 15.1334 14.0727C13.9253 14.0727 12.9459 13.0933 12.9459 11.8852Z" fill="#05D9E8"/>
<path fill-rule="evenodd" clip-rule="evenodd" d="M15.1334 2.82272C10.1283 2.82272 6.07093 6.88014 6.07093 11.8852C6.07093 13.7204 6.61641 15.4281 7.55407 16.8552L4.32153 22.4541C4.13769 22.7725 4.15695 23.169 4.37077 23.4681C4.58459 23.7672 4.9535 23.9137 5.31426 23.8428L8.5816 23.2005L9.65901 26.3512C9.77798 26.6991 10.0893 26.9453 10.4552 26.981C10.8212 27.0166 11.1742 26.835 11.358 26.5166L14.5827 20.9313C14.7649 20.9422 14.9485 20.9477 15.1334 20.9477C15.3184 20.9477 15.502 20.9422 15.6842 20.9313L18.9089 26.5166C19.0929 26.8354 19.4464 27.0169 19.8126 26.9809C20.1789 26.9448 20.4902 26.6978 20.6085 26.3493L21.6805 23.1922L24.9506 23.8424C25.3116 23.9142 25.6811 23.7681 25.8955 23.4689C26.1099 23.1698 26.1294 22.7729 25.9453 22.4541L22.7128 16.8552C23.6505 15.4281 24.1959 13.7204 24.1959 11.8852C24.1959 6.88014 20.1385 2.82272 15.1334 2.82272ZM7.94593 11.8852C7.94593 7.91568 11.1639 4.69772 15.1334 4.69772C19.103 4.69772 22.3209 7.91568 22.3209 11.8852C22.3209 15.8548 19.103 19.0727 15.1334 19.0727C11.1639 19.0727 7.94593 15.8548 7.94593 11.8852ZM12.6131 20.5927C11.1719 20.1762 9.87838 19.4117 8.82955 18.396L6.9768 21.6051L9.02301 21.2028C9.48307 21.1124 9.93921 21.3757 10.0909 21.8194L10.7657 23.7926L12.6131 20.5927ZM19.4982 23.7874L17.6537 20.5927C19.095 20.1762 20.3885 19.4117 21.4373 18.396L23.2871 21.5999L21.2399 21.1928C20.7785 21.1011 20.3205 21.3655 20.1693 21.8109L19.4982 23.7874Z" fill="#05D9E8"/>
</g>
</g>
</svg>
