<svg width="73" height="127" viewBox="0 0 73 127" fill="none" xmlns="http://www.w3.org/2000/svg">
<g id="Medal Red" filter="url(#filter0_d_139_4825)">
<path id="Rectangle 26" d="M9.47679 15.5462C6.09042 15.3497 3.40489 12.5414 3.40489 9.10575V7.83155C3.40489 4.2682 6.29356 1.37953 9.85691 1.37953H52.3963C55.9597 1.37953 58.8483 4.2682 58.8483 7.83155V9.10575C58.8483 12.5414 56.1628 15.3497 52.7765 15.5462V8.08861V7.70908H52.3969H9.85632H9.47679V8.08861V15.5462Z" fill="#FFEEB0" stroke="#FFF787" stroke-width="0.759061"/>
<path id="Rectangle 23" d="M9.47679 16.4869C6.09042 16.2904 3.40489 13.482 3.40489 10.0464V8.77223C3.40489 5.20887 6.29356 2.3202 9.85691 2.3202H52.3963C55.9597 2.3202 58.8483 5.20887 58.8483 8.77222V10.0464C58.8483 13.482 56.1628 16.2904 52.7765 16.4869V9.02928V8.64975H52.3969H9.85632H9.47679V9.02928V16.4869Z" fill="#F4CC3F" stroke="#FFF787" stroke-width="0.759061"/>
<path id="Rectangle 22" d="M10.2403 9.32161H52.0129V38.8651L31.1266 53.5192L10.2403 38.8651V9.32161Z" fill="#CE4444" stroke="#FFF787" stroke-width="0.759061"/>
<g id="Mask Group">
<mask id="mask0_139_4825" style="mask-type:alpha" maskUnits="userSpaceOnUse" x="9" y="8" width="44" height="46">
<path id="Rectangle 20" d="M10.2501 9.32161H52.0031V38.8701L31.1266 53.5192L10.2501 38.8701V9.32161Z" fill="#AF3B3B" stroke="#FFF787" stroke-width="0.759061"/>
</mask>
<g mask="url(#mask0_139_4825)">
<rect id="Rectangle 21" x="23.3655" y="-8.55675" width="15.5221" height="62.1601" fill="#983535" stroke="#FFF787" stroke-width="0.759061"/>
</g>
</g>
<rect id="Rectangle 24" x="27.9617" y="46.4664" width="6.07638" height="10.8865" rx="3.03819" fill="#C09525" stroke="#FFF787" stroke-width="0.759061"/>
<circle id="Ellipse 1" cx="31" cy="85.018" r="29.6205" fill="url(#paint0_linear_139_4825)" stroke="#FFF787" stroke-width="0.759061"/>
<path id="Ellipse 2" d="M54.0382 85.0179C54.0382 97.7415 43.7237 108.056 31 108.056C18.2764 108.056 7.96184 97.7415 7.96184 85.0179C7.96184 72.2942 18.2764 61.9797 31 61.9797C43.7237 61.9797 54.0382 72.2942 54.0382 85.0179Z" fill="#705100" stroke="#FFF787" stroke-width="0.759061"/>
<g id="Mask Group_2">
<mask id="mask1_139_4825" style="mask-type:alpha" maskUnits="userSpaceOnUse" x="8" y="64" width="48" height="48">
<path id="Ellipse 4" d="M55.5104 87.6878C55.5104 100.442 45.1715 110.78 32.4177 110.78C19.664 110.78 9.32503 100.442 9.32503 87.6878C9.32503 74.9341 19.664 64.5951 32.4177 64.5951C45.1715 64.5951 55.5104 74.9341 55.5104 87.6878Z" fill="#C28B37" stroke="#FFF787" stroke-width="0.759061"/>
</mask>
<g mask="url(#mask1_139_4825)">
<path id="Ellipse 3" d="M54.0928 85.0179C54.0928 97.7716 43.7538 108.111 31.0001 108.111C18.2463 108.111 7.90739 97.7716 7.90739 85.0179C7.90739 72.2641 18.2463 61.9252 31.0001 61.9252C43.7538 61.9252 54.0928 72.2641 54.0928 85.0179Z" fill="#F5B307" stroke="#FFF787" stroke-width="0.759061"/>
</g>
</g>
<path id="Ellipse 7" d="M50.2203 85.1864C50.2203 95.6265 41.757 104.09 31.3169 104.09C20.8769 104.09 12.4136 95.6265 12.4136 85.1864C12.4136 74.7464 20.8769 66.283 31.3169 66.283C41.757 66.283 50.2203 74.7464 50.2203 85.1864Z" fill="#C18222" stroke="#FFF787" stroke-width="0.759061"/>
<path id="Vector" d="M31.7656 69.4455L31.3169 68.5326L30.8681 69.4455L26.4405 78.4535L17.6147 79.5758L16.6806 79.6946L17.3022 80.4018L23.4042 87.3456L21.731 97.332L21.5672 98.3097L22.4508 97.8603L31.3169 93.3508L40.1829 97.8603L41.065 98.3089L40.9029 97.3327L39.2443 87.3455L45.332 80.4014L45.9518 79.6944L45.0191 79.5758L36.1933 78.4535L31.7656 69.4455Z" fill="url(#paint1_linear_139_4825)" stroke="#FFF787"/>
<path id="Rectangle 25" opacity="0.5" d="M52.1015 27.4284L10.0619 27.4284L10.0619 9.37492L52.1015 9.37493L52.1015 27.4284Z" fill="url(#paint2_linear_139_4825)" stroke="#FFF787" stroke-width="0.759061"/>
</g>
<defs>
<filter id="filter0_d_139_4825" x="0.216502" y="0.216502" width="72.536" height="126.554" filterUnits="userSpaceOnUse" color-interpolation-filters="sRGB">
<feFlood flood-opacity="0" result="BackgroundImageFix"/>
<feColorMatrix in="SourceAlpha" type="matrix" values="0 0 0 0 0 0 0 0 0 0 0 0 0 0 0 0 0 0 127 0" result="hardAlpha"/>
<feOffset dx="5.48449" dy="5.48449"/>
<feGaussianBlur stdDeviation="3.13399"/>
<feComposite in2="hardAlpha" operator="out"/>
<feColorMatrix type="matrix" values="0 0 0 0 0 0 0 0 0 0 0 0 0 0 0 0 0 0 0.3 0"/>
<feBlend mode="normal" in2="BackgroundImageFix" result="effect1_dropShadow_139_4825"/>
<feBlend mode="normal" in="SourceGraphic" in2="effect1_dropShadow_139_4825" result="shape"/>
</filter>
<linearGradient id="paint0_linear_139_4825" x1="31" y1="55.018" x2="31" y2="115.018" gradientUnits="userSpaceOnUse">
<stop stop-color="#E7CD73"/>
<stop offset="1" stop-color="#EA8C00"/>
</linearGradient>
<linearGradient id="paint1_linear_139_4825" x1="31.3169" y1="69.6661" x2="31.3169" y2="97.4146" gradientUnits="userSpaceOnUse">
<stop stop-color="white"/>
<stop offset="0.0001" stop-color="#FFFFFD"/>
<stop offset="1" stop-color="#FFE86D"/>
</linearGradient>
<linearGradient id="paint2_linear_139_4825" x1="31.0817" y1="27.808" x2="31.0817" y2="8.99539" gradientUnits="userSpaceOnUse">
<stop stop-color="#A21D1D" stop-opacity="0"/>
<stop offset="1" stop-color="#5A1414"/>
</linearGradient>
</defs>
</svg>
